Units are S.I. units (second, meters, Newtons, ...)
Angles are in degrees.
name squat
datarows 60
datacolumns 19
range 2.65664 3.24812
endheader
time	exo_pelvis_tx	exo_pelvis_ty	exo_pelvis_tilt	exo_hip_r	exo_hip_l	exo_knee_r	exo_knee_l	r_ankle_coupling	l_ankle_coupling	planar_xdot	planar_zdot	planar_rotydot	exo_hip_rdot	exo_hip_ldot	exo_knee_rdot	exo_knee_ldot	r_ankle_couplingdot	l_ankle_couplingdot	
2.65664	-0.399144	0.856625	-0.381118	9.96071	9.96071	-37.9861	-37.9861	28.4067	28.4067	8.0315	9.0826	1.83794	-50.7127	-50.7127	92.9703	92.9703	-44.2743	-44.2743	
2.66667	-0.39759	0.858345	-0.382356	9.46591	9.46591	-37.066	-37.066	27.9826	27.9826	7.87277	8.86101	1.66162	-50.1508	-50.1508	92.5904	92.5904	-44.2805	-44.2805	
2.67669	-0.396073	0.86002	-0.383265	8.97595	8.97595	-36.1513	-36.1513	27.5588	27.5588	7.70067	8.6331	1.48147	-49.5199	-49.5199	92.092	92.092	-44.2318	-44.2318	
2.68672	-0.394598	0.86165	-0.383894	8.49153	8.49153	-35.2431	-35.2431	27.1356	27.1356	7.51488	8.39896	1.29995	-48.8214	-48.8214	91.4729	91.4729	-44.127	-44.127	
2.69674	-0.393167	0.863231	-0.38429	8.01332	8.01332	-34.3423	-34.3423	26.7134	26.7134	7.31512	8.15867	1.1195	-48.0565	-48.0565	90.7305	90.7305	-43.9647	-43.9647	
2.70677	-0.391782	0.864763	-0.3845	7.54204	7.54204	-33.45	-33.45	26.2926	26.2926	7.10105	7.91233	0.942583	-47.2265	-47.2265	89.8625	89.8625	-43.7437	-43.7437	
2.71679	-0.390448	0.866242	-0.384572	7.07835	7.07835	-32.5672	-32.5672	25.8736	25.8736	6.87239	7.66001	0.771665	-46.3326	-46.3326	88.8665	88.8664	-43.4624	-43.4624	
2.72682	-0.389167	0.867667	-0.384553	6.62295	6.62295	-31.695	-31.695	25.4567	25.4567	6.62881	7.40179	0.609199	-45.3762	-45.3762	87.7399	87.7399	-43.1197	-43.1197	
2.73684	-0.387942	0.869037	-0.384491	6.17654	6.17654	-30.8342	-30.8342	25.0423	25.0423	6.37002	7.13777	0.457643	-44.3584	-44.3584	86.4805	86.4805	-42.7142	-42.7142	
2.74687	-0.386776	0.870348	-0.384434	5.73979	5.73979	-29.9861	-29.9861	24.6309	24.6309	6.0957	6.86802	0.319454	-43.2806	-43.2806	85.0858	85.0858	-42.2445	-42.2445	
2.75689	-0.385672	0.871599	-0.384428	5.3134	5.3134	-29.1515	-29.1515	24.2227	24.2227	5.80555	6.59263	0.19709	-42.144	-42.144	83.5533	83.5533	-41.7092	-41.7092	
2.76692	-0.384633	0.872789	-0.384521	4.89807	4.89807	-28.3315	-28.3315	23.8181	23.8181	5.49926	6.31168	0.0930079	-40.95	-40.95	81.8807	81.8807	-41.1071	-41.1071	
2.77694	-0.383662	0.873914	-0.384761	4.49447	4.49447	-27.5272	-27.5272	23.4176	23.4176	5.17652	6.02526	0.0096662	-39.6997	-39.6997	80.0656	80.0656	-40.4368	-40.4368	
2.78697	-0.382762	0.874973	-0.385196	4.1033	4.1033	-26.7394	-26.7394	23.0215	23.0215	4.83703	5.73344	-0.0504779	-38.3944	-38.3944	78.1054	78.1054	-39.697	-39.697	
2.79699	-0.381936	0.875964	-0.385872	3.72525	3.72525	-25.9694	-25.9694	22.6301	22.6301	4.48047	5.43633	-0.0849669	-37.0354	-37.0354	75.9979	75.9979	-38.8863	-38.8863	
2.80702	-0.381174	0.876893	-0.386478	3.35677	3.35677	-25.2113	-25.2113	22.2412	22.2412	4.11656	5.13627	-0.0916459	-35.6855	-35.6855	73.8579	73.8579	-38.0605	-38.0605	
2.81704	-0.380438	0.877779	-0.386022	2.98628	2.98628	-24.4471	-24.4471	21.847	21.847	3.77363	4.84013	-0.0710834	-34.517	-34.517	72.014	72.014	-37.3788	-37.3788	
2.82707	-0.379729	0.878624	-0.384481	2.61355	2.61355	-23.6767	-23.6767	21.4478	21.4478	3.45229	4.54867	-0.0252698	-33.5285	-33.5285	70.4666	70.4665	-36.8412	-36.8412	
2.83709	-0.379045	0.87943	-0.3819	2.23916	2.23916	-22.901	-22.901	21.0438	21.0438	3.15129	4.26225	0.0437933	-32.707	-32.707	69.1939	69.1938	-36.4371	-36.4371	
2.84712	-0.378388	0.880198	-0.378321	1.86367	1.86367	-22.1211	-22.1211	20.6359	20.6359	2.86939	3.98125	0.134104	-32.0396	-32.0396	68.1744	68.1743	-36.1557	-36.1556	
2.85714	-0.377759	0.880929	-0.37379	1.48766	1.48766	-21.3381	-21.3381	20.2243	20.2243	2.60536	3.70601	0.243661	-31.5133	-31.5132	67.3866	67.3864	-35.9863	-35.9862	
2.86717	-0.377159	0.881623	-0.368349	1.11169	1.11169	-20.553	-20.553	19.8098	19.8098	2.35794	3.43691	0.370461	-31.115	-31.1149	66.8088	66.8086	-35.9182	-35.9182	
2.87719	-0.376587	0.882283	-0.362044	0.736336	0.736336	-19.767	-19.767	19.3929	19.3929	2.12591	3.1743	0.512505	-30.8319	-30.8318	66.4195	66.4192	-35.9408	-35.9407	
2.88722	-0.376046	0.882908	-0.354917	0.362162	0.362162	-18.9811	-18.9811	18.974	18.974	1.90801	2.91854	0.667789	-30.6509	-30.6508	66.197	66.1966	-36.0434	-36.0432	
2.89724	-0.375536	0.8835	-0.347013	-0.0102611	-0.0102611	-18.1963	-18.1963	18.5537	18.5537	1.70301	2.67	0.834312	-30.5591	-30.5589	66.1198	66.1194	-36.2152	-36.215	
2.90727	-0.375058	0.884059	-0.338376	-0.380366	-0.380366	-17.4137	-17.4137	18.1326	18.1326	1.50966	2.42903	1.01007	-30.5435	-30.5433	66.1663	66.1658	-36.4455	-36.4453	
2.91729	-0.374612	0.884588	-0.32905	-0.747583	-0.747583	-16.6344	-16.6344	17.7112	17.7112	1.32672	2.19601	1.19307	-30.5911	-30.5908	66.315	66.3144	-36.7237	-36.7235	
2.92732	-0.374199	0.885086	-0.319078	-1.11134	-1.11134	-15.8594	-15.8594	17.29	17.29	1.15296	1.97129	1.3813	-30.6889	-30.6886	66.5442	66.5435	-37.0391	-37.0388	
2.93734	-0.37382	0.885556	-0.308505	-1.47108	-1.47108	-15.0899	-15.0899	16.8696	16.8696	0.987126	1.75522	1.57276	-30.8241	-30.8237	66.8323	66.8315	-37.3809	-37.3806	
2.94737	-0.373476	0.885997	-0.297374	-1.82622	-1.82622	-14.3268	-14.3268	16.4506	16.4506	0.827979	1.54819	1.76545	-30.9835	-30.983	67.1578	67.1569	-37.7385	-37.7382	
2.95739	-0.373168	0.886411	-0.28573	-2.17619	-2.17619	-13.5713	-13.5713	16.0334	16.0334	0.674279	1.35053	1.95737	-31.1542	-31.1537	67.499	67.4981	-38.1012	-38.1008	
2.96742	-0.372896	0.8868	-0.273616	-2.52044	-2.52044	-12.8244	-12.8244	15.6186	15.6186	0.524784	1.16263	2.14652	-31.3232	-31.3227	67.8345	67.8335	-38.4583	-38.4579	
2.97744	-0.372661	0.887163	-0.261076	-2.85838	-2.85838	-12.0871	-12.0871	15.2067	15.2067	0.378253	0.98483	2.33089	-31.4776	-31.4771	68.1426	68.1415	-38.799	-38.7986	
2.98747	-0.372464	0.887502	-0.248155	-3.18946	-3.18946	-11.3606	-11.3606	14.7983	14.7983	0.233443	0.817502	2.50849	-31.6044	-31.6039	68.4017	68.4005	-39.1128	-39.1123	
2.99749	-0.372306	0.887818	-0.234895	-3.51309	-3.51309	-10.6458	-10.6458	14.394	14.394	0.0891146	0.661006	2.67731	-31.6907	-31.6901	68.5902	68.589	-39.3888	-39.3883	
3.00752	-0.372187	0.888112	-0.221342	-3.82872	-3.82872	-9.94397	-9.94397	13.9942	13.9942	-0.0559754	0.515703	2.83535	-31.7233	-31.7227	68.6866	68.6853	-39.6164	-39.6159	
3.01754	-0.372109	0.888385	-0.207539	-4.13578	-4.13578	-9.25603	-9.25603	13.5995	13.5995	-0.203068	0.381954	2.9806	-31.6894	-31.6888	68.6693	68.668	-39.785	-39.7844	
3.02757	-0.372072	0.888639	-0.19353	-4.43368	-4.43368	-8.58307	-8.58307	13.2104	13.2104	-0.353404	0.260121	3.11107	-31.576	-31.5754	68.5167	68.5153	-39.8837	-39.8832	
3.03759	-0.372077	0.888873	-0.179358	-4.72188	-4.72188	-7.92617	-7.92617	12.8276	12.8276	-0.508226	0.150566	3.22476	-31.3701	-31.3695	68.2071	68.2057	-39.902	-39.9014	
3.04762	-0.372124	0.889089	-0.165069	-4.99979	-4.99979	-7.28639	-7.28639	12.4514	12.4514	-0.668776	0.0536507	3.31966	-31.0588	-31.0581	67.7191	67.7177	-39.8291	-39.8285	
3.05764	-0.372215	0.889289	-0.150705	-5.26685	-5.26685	-6.66479	-6.66479	12.0825	12.0825	-0.836294	-0.0302643	3.39377	-30.629	-30.6283	67.031	67.0296	-39.6543	-39.6537	
3.06767	-0.37235	0.889472	-0.136311	-5.52248	-5.52248	-6.06244	-6.06244	11.7214	11.7214	-1.01202	-0.100817	3.4451	-30.0678	-30.0671	66.1213	66.1198	-39.3669	-39.3663	
3.07769	-0.37253	0.889641	-0.121931	-5.76613	-5.76613	-5.4804	-5.4804	11.3686	11.3686	-1.1972	-0.157646	3.47163	-29.3622	-29.3615	64.9683	64.9668	-38.9562	-38.9557	
3.08772	-0.372757	0.889796	-0.107608	-5.99723	-5.99723	-4.91974	-4.91974	11.0247	11.0247	-1.39307	-0.20039	3.47136	-28.4992	-28.4985	63.5505	63.5491	-38.4116	-38.4111	
3.09774	-0.373029	0.889938	-0.0933864	-6.21519	-6.21519	-4.38153	-4.38153	10.6903	10.6903	-1.60088	-0.228686	3.4423	-27.4659	-27.4652	61.8463	61.8449	-37.7224	-37.7218	
3.10777	-0.373349	0.890069	-0.0793105	-6.41946	-6.41946	-3.86682	-3.86682	10.3657	10.3657	-1.82187	-0.242175	3.38244	-26.2492	-26.2486	59.8341	59.8328	-36.8777	-36.8772	
3.11779	-0.373718	0.890188	-0.065424	-6.60946	-6.60946	-3.37668	-3.37668	10.0517	10.0517	-2.05727	-0.240493	3.28979	-24.8363	-24.8357	57.4924	57.4911	-35.8671	-35.8665	
3.12782	-0.374135	0.890298	-0.0517707	-6.78463	-6.78463	-2.91218	-2.91218	9.74874	9.74874	-2.30833	-0.22328	3.16233	-23.2141	-23.2135	54.7994	54.7982	-34.6796	-34.6792	
3.13784	-0.374602	0.890399	-0.0383947	-6.9444	-6.9444	-2.47439	-2.47439	9.45734	9.45734	-2.57629	-0.190173	2.99807	-21.3696	-21.3691	51.7338	51.7327	-33.3048	-33.3043	
3.14787	-0.375119	0.890492	-0.0253399	-7.0882	-7.0882	-2.06436	-2.06436	9.17805	9.17805	-2.86239	-0.140812	2.79501	-19.29	-19.2895	48.2738	48.2728	-31.7318	-31.7314	
3.15789	-0.375688	0.890579	-0.0126501	-7.21546	-7.21546	-1.68315	-1.68315	8.91141	8.91141	-3.16788	-0.0748349	2.55114	-16.9621	-16.9617	44.3979	44.397	-29.9499	-29.9496	
3.16792	-0.376309	0.89066	-0.000369454	-7.3256	-7.3256	-1.33185	-1.33185	8.65797	8.65797	-3.494	0.00812	2.26446	-14.373	-14.3727	40.0845	40.0838	-27.9486	-27.9483	
3.17794	-0.376983	0.890736	0.0114583	-7.41807	-7.41807	-1.0115	-1.0115	8.41827	8.41827	-3.84198	0.108414	1.93297	-11.5098	-11.5096	35.312	35.3115	-25.717	-25.7168	
3.18797	-0.377711	0.890808	0.0227891	-7.4923	-7.4923	-0.723182	-0.723182	8.19284	8.19284	-4.21306	0.226409	1.55468	-8.35953	-8.35939	30.0588	30.0585	-23.2445	-23.2444	
3.19799	-0.378493	0.890878	0.033579	-7.54771	-7.54771	-0.46795	-0.46795	7.98223	7.98223	-4.6085	0.362467	1.12756	-4.9091	-4.90908	24.3034	24.3034	-20.5204	-20.5204	
3.20802	-0.379338	0.890949	0.0437373	-7.58161	-7.58161	-0.250319	-0.250319	7.78835	7.78835	-5.01213	0.506759	0.676872	-1.33218	-1.33227	18.3376	18.3378	-17.6884	-17.6885	
3.21805	-0.380258	0.891026	0.0531557	-7.59003	-7.59003	-0.0768023	-0.0768023	7.61383	7.61383	-5.38887	0.638679	0.257332	1.99625	1.99605	12.791	12.7914	-15.0585	-15.0587	
3.22807	-0.38125	0.891108	0.0618465	-7.57402	-7.57402	0.0543758	0.0543758	7.45795	7.45795	-5.73812	0.758032	-0.130311	5.07167	5.07138	7.67011	7.67071	-12.6335	-12.6338	
3.2381	-0.382309	0.891197	0.0698255	-7.53479	-7.53479	0.145227	0.145227	7.31989	7.31989	-6.06033	0.86526	-0.487007	7.9012	7.90083	2.96218	2.96295	-10.4067	-10.407	
3.24812	-0.383431	0.89129	0.0771083	-7.47355	-7.47355	0.197764	0.197764	7.19883	7.19883	-6.35599	0.960807	-0.813707	10.492	10.4915	-1.34573	-1.34481	-8.37131	-8.37169	
